<?xml version="1.0" standalone="no"?>
<!DOCTYPE svg PUBLIC "-//W3C//DTD SVG 1.1//EN" "http://www.w3.org/Graphics/SVG/1.1/DTD/svg11.dtd" >
<svg xmlns="http://www.w3.org/2000/svg" xmlns:xlink="http://www.w3.org/1999/xlink" version="1.1">
<metadata></metadata>
<defs>
<font id="alternategotno1dregular" horiz-adv-x="696" >
<font-face units-per-em="2048" ascent="1685" descent="-363" />
<missing-glyph horiz-adv-x="355" />
<glyph horiz-adv-x="0" />
<glyph horiz-adv-x="682" />
<glyph unicode=" "  horiz-adv-x="355" />
<glyph unicode="&#x09;" horiz-adv-x="355" />
<glyph unicode="&#xa0;" horiz-adv-x="355" />
<glyph unicode="!" horiz-adv-x="458" d="M123 1365h213l-48 -983h-123zM134 0v205h191v-205h-191z" />
<glyph unicode="&#x22;" horiz-adv-x="720" d="M91 1365h207l-33 -546h-142zM423 1365h206l-32 -546h-142z" />
<glyph unicode="#" horiz-adv-x="749" d="M78 372l21 140h81l45 325h-87l22 139h85l54 389h99l-54 -389h129l54 389h100l-54 -389h83l-19 -139h-83l-46 -325h92l-20 -140h-91l-51 -372h-100l52 372h-129l-52 -372h-100l52 372h-83zM280 512h129l45 325h-129z" />
<glyph unicode="$" d="M88 345q0 33 2 69l179 9q-1 -37 -1 -56q0 -78 9 -108q20 -67 82 -67q85 0 85 126q0 62 -31 128q-20 43 -80 122l-90 131q-72 104 -104 176q-43 95 -43 188q0 167 120 237q26 16 62 26v121h154v-117q110 -24 155 -138q24 -67 23 -198l-177 -18q-1 82 -6 116q-11 80 -74 80 q-78 0 -78 -120q0 -65 32 -123q19 -34 96 -148l92 -131q62 -88 92 -155q37 -85 37 -175q0 -221 -191 -279v-123h-154v117q-56 12 -103 54q-55 50 -75 120q-13 47 -13 136z" />
<glyph unicode="%" horiz-adv-x="971" d="M82 830v355q0 72 6 94q14 57 64 83q33 17 73 17q82 0 120 -59q20 -31 22 -70q1 -22 1 -65v-355q0 -72 -6 -95q-14 -56 -64 -82q-33 -18 -73 -18q-82 0 -120 59q-20 31 -22 71q-1 22 -1 65zM183 793q0 -58 42 -58t42 58v428q0 59 -42 59t-42 -59v-428zM242 -68l386 1502 h102l-394 -1502h-94zM603 182v354q0 72 6 95q14 56 64 82q33 17 73 17q82 0 120 -59q20 -31 22 -69q1 -22 1 -65v-355q0 -73 -6 -95q-14 -57 -64 -83q-33 -18 -73 -18q-82 0 -120 60q-20 31 -22 70q-1 23 -1 66zM704 145q0 -59 42 -59t42 59v428q0 58 -42 58t-42 -58v-428z " />
<glyph unicode="&#x26;" horiz-adv-x="855" d="M96 302q0 184 143 394q-29 58 -50 129q-48 156 -48 257q0 107 52 179q30 41 80.5 65.5t106.5 24.5q109 0 173 -77q54 -66 54 -168q0 -149 -116 -322q-41 -61 -74 -104q60 -151 146 -272q38 91 63 232l161 -20q-20 -187 -110 -350q28 -39 50 -54q13 -10 44 -25v-205 q-83 22 -190 125q-52 -56 -84 -77q-75 -49 -168 -49q-106 0 -172 96q-61 88 -61 221zM261 316q0 -65 21 -110q23 -51 72 -51q59 0 120 81q-34 48 -86 136q-50 87 -73 142q-54 -106 -54 -198zM299 1085q0 -62 50 -230q101 158 101 251q0 92 -69 92q-39 0 -61 -31 q-21 -30 -21 -82z" />
<glyph unicode="'" horiz-adv-x="394" d="M91 1365h212l-32 -546h-148z" />
<glyph unicode="(" horiz-adv-x="559" d="M82 594q0 416 281 848l128 -74q-75 -122 -124 -241q-108 -259 -108 -533t108 -532q49 -119 124 -242l-128 -73q-281 433 -281 847z" />
<glyph unicode=")" horiz-adv-x="559" d="M68 -180q74 120 124 242q108 258 108 532t-108 532q-50 121 -124 242l128 74q88 -137 141 -249q140 -298 140 -599q0 -415 -281 -847z" />
<glyph unicode="*" horiz-adv-x="641" d="M82 1206l46 143l133 -62l-16 147h151l-16 -147l133 62l46 -143l-143 -30l98 -108l-121 -88l-72 126l-73 -126l-121 88l98 108z" />
<glyph unicode="+" d="M76 641v135h197v222h149v-222h199v-135h-199v-219h-149v219h-197z" />
<glyph unicode="," horiz-adv-x="382" d="M96 -1v205h191v-205l-86 -242h-105l70 242h-70z" />
<glyph unicode="-" horiz-adv-x="255" d="M0 427v160h255v-160h-255z" />
<glyph unicode="." horiz-adv-x="382" d="M96 0v205h191v-205h-191z" />
<glyph unicode="/" horiz-adv-x="638" d="M34 -137l427 1502h129l-434 -1502h-122z" />
<glyph unicode="0" d="M78 348v671q0 137 11 178q26 106 121 155q63 33 139 33q72 0 132.5 -30t93.5 -81q38 -58 42 -131q2 -42 2 -124v-671q0 -137 -11 -179q-26 -106 -121 -156q-63 -33 -138 -33q-72 0 -133 30t-94 82q-38 59 -42 133q-2 42 -2 123zM269 268q0 -55 14 -77q22 -34 65 -34 q44 0 65 34q15 23 15 77v829q0 55 -14 77q-22 34 -66 34q-43 0 -65 -34q-14 -22 -14 -77v-829z" />
<glyph unicode="1" d="M170 1100v136q100 56 169 129h119v-1365h-191v1100h-97z" />
<glyph unicode="2" d="M85 0v156q55 101 193 382q100 205 123 295q23 88 23 205q0 103 -15 140q-13 31 -50 31q-57 0 -71 -75q-9 -51 -10 -166h-179q-1 39 -1 58q0 147 49 236q68 123 220 123q128 0 189 -89q54 -78 54 -206q0 -201 -97 -447q-52 -134 -122 -260l-91 -165l-22 -41h319v-177h-512 z" />
<glyph unicode="3" d="M82 307q0 33 3 83h185q-1 -33 -1 -51q0 -65 7 -105q13 -78 70 -78q38 0 53 33q11 26 11 106v187q0 73 -26 106q-34 43 -97 43q-11 0 -29 -1v175q74 1 107 33q45 45 45 113v181q0 76 -60 76q-53 0 -64 -48q-6 -31 -6 -156h-177q-1 33 -1 48q0 130 31 201q57 132 211 132 q121 0 185 -86q41 -55 50 -126q7 -53 7 -121q0 -182 -23 -240q-15 -40 -76 -86q80 -32 97 -94q17 -59 17 -304q0 -178 -63 -260q-67 -89 -203 -89q-145 0 -206 103q-47 78 -47 225z" />
<glyph unicode="4" d="M47 304v177l309 884h191v-884h75v-177h-75v-304h-191v304h-309zM207 481h149v495z" />
<glyph unicode="5" d="M85 299q0 44 5 87h178q-1 -37 -1 -56q0 -104 25 -143q18 -30 54 -30q69 0 69 108v413q0 99 -59 99t-88 -112h-163l21 700h446l-8 -177h-283l-13 -329q77 96 151 96q38 0 74 -19t57 -50q56 -83 56 -246v-316q0 -128 -19 -182q-31 -85 -110 -128q-63 -34 -138 -34 q-128 0 -197 96q-57 79 -57 223z" />
<glyph unicode="6" d="M83 270v833q0 136 77 213q71 70 179 70q95 0 161 -55q76 -62 91 -188q6 -47 6 -126h-181q2 34 2 54q0 65 -12 95q-17 42 -61 42q-40 0 -59 -34q-12 -23 -12 -95v-304q74 80 149 80q87 0 139 -72q38 -52 45 -114q7 -61 7 -155v-230q0 -145 -73 -223q-75 -82 -198 -82 q-89 0 -153 45q-107 75 -107 246zM274 240q0 -39 24 -63q20 -20 49 -20q76 0 76 100v293q0 86 -12 114q-14 32 -50 32q-47 0 -87 -50v-406z" />
<glyph unicode="7" d="M94 1188v177h487v-107l-202 -1258h-200l202 1188h-287z" />
<glyph unicode="8" d="M88 329q0 244 17 303q17 62 97 94q-61 45 -76 86q-23 59 -23 239q0 119 19 175q53 159 226 159q124 0 188 -86q41 -56 50 -126q7 -54 7 -122q0 -181 -23 -239q-15 -41 -76 -86q80 -32 97 -94q17 -59 17 -303q0 -178 -63 -260q-67 -89 -197 -89t-197 89q-63 82 -63 260z M274 276q0 -78 20 -99q21 -22 54 -22t54 22q20 21 20 99v229q0 79 -20 100q-21 22 -54 22t-54 -22q-20 -21 -20 -100v-229zM281 931q0 -62 17 -87q16 -23 50 -23t50 23q17 25 17 87v180q0 62 -17 87q-16 23 -50 23t-50 -23q-17 -25 -17 -87v-180z" />
<glyph unicode="9" d="M83 851v230q0 145 73 223q75 82 198 82q89 0 153 -45q107 -75 107 -246v-833q0 -136 -77 -213q-71 -70 -179 -70q-95 0 -161 55q-76 63 -91 188q-6 47 -6 126h181q-2 -31 -2 -54q0 -65 12 -95q17 -42 61 -42q40 0 59 34q12 24 12 95v305q-73 -81 -149 -81q-87 0 -139 72 q-38 52 -45 114q-7 61 -7 155zM274 815q0 -86 12 -114q14 -32 50 -32q47 0 87 49v407q0 39 -24 63q-20 20 -49 20q-76 0 -76 -99v-294z" />
<glyph unicode=":" horiz-adv-x="382" d="M96 0v205h191v-205h-191zM96 718v205h191v-205h-191z" />
<glyph unicode=";" horiz-adv-x="382" d="M96 -1v205h191v-205l-86 -242h-105l70 242h-70zM96 718v205h191v-205h-191z" />
<glyph unicode="&#x3c;" horiz-adv-x="1024" d="M68 605v165l887 429v-192l-682 -320l682 -321v-191z" />
<glyph unicode="=" d="M76 504v135h545v-135h-545zM76 777v135h545v-135h-545z" />
<glyph unicode="&#x3e;" horiz-adv-x="1024" d="M69 175v192l682 320l-681 321v191l886 -430v-164z" />
<glyph unicode="?" horiz-adv-x="666" d="M82 1134q59 245 265 245q122 0 189 -82q51 -64 51 -157q0 -55 -21 -116q-9 -24 -102 -202q-36 -69 -45 -145q-6 -46 -6 -141v-161h-158v217q0 98 3 134q5 57 33 130q17 46 61 149q48 112 48 147q0 25 -23 43q-18 14 -39 14q-56 0 -97 -129zM238 0v205h191v-205h-191z" />
<glyph unicode="@" horiz-adv-x="827" d="M109 332v713q0 153 73 240q84 100 243 100q124 0 205 -65q108 -88 108 -264v-694h-106l-20 56q-54 -76 -121 -76t-96 32q-40 45 -40 139v384q0 92 37 137q40 50 107 50q54 0 100 -53v44q0 83 -41 128q-52 58 -133 58q-80 0 -130 -59q-38 -43 -44 -99q-4 -36 -4 -89v-638 q0 -123 32 -182q50 -91 154 -91q93 0 166 92l83 -95q-94 -121 -248 -121q-67 0 -129.5 23t-101.5 61q-43 43 -68.5 115.5t-25.5 153.5zM497 555q0 -49 14 -63q13 -14 37 -14q28 0 42 19q9 14 9 58v310q0 49 -14 63q-13 14 -37 14q-28 0 -42 -19q-9 -14 -9 -58v-310z" />
<glyph unicode="A" horiz-adv-x="720" d="M55 0l186 1365h247l178 -1365h-188l-34 307h-171l-34 -307h-184zM293 484h131l-66 634z" />
<glyph unicode="B" horiz-adv-x="718" d="M82 0v1365h172q142 0 195 -23q87 -37 128.5 -115t41.5 -203q0 -149 -39 -224q-22 -42 -83 -81q73 -28 106 -87q27 -49 33 -104q7 -58 7 -128q0 -163 -29 -232q-41 -101 -139 -139q-73 -29 -202 -29h-191zM273 177h18q103 0 134 50q27 42 27 172t-27 172q-31 50 -134 50 h-18v-444zM273 799h27q100 0 121 65q12 36 12 162q0 63 -12 98q-22 64 -121 64h-27v-389z" />
<glyph unicode="C" d="M79 306v753q0 327 269 327q276 0 276 -356q0 -39 -4 -108h-191q4 57 4 93q0 100 -10 135q-17 59 -75 59q-45 0 -63 -32q-15 -27 -15 -118v-753q0 -90 15 -118q17 -32 63 -32q52 0 69 42q16 40 16 141q0 55 -4 146h190q5 -99 5 -143q0 -363 -276 -363q-269 0 -269 327z " />
<glyph unicode="D" horiz-adv-x="702" d="M82 0v1365h204h23q308 0 314 -314v-737q-6 -314 -314 -314h-23h-204zM273 177h24q72 1 101 24q33 29 34 113v737q-1 82 -34 111q-30 25 -101 26h-24v-1011z" />
<glyph unicode="E" horiz-adv-x="602" d="M82 0v1365h460v-177h-269v-384h189v-177h-189v-450h286v-177h-477z" />
<glyph unicode="F" horiz-adv-x="569" d="M82 0v1365h460v-177h-269v-384h189v-177h-189v-627h-191z" />
<glyph unicode="G" horiz-adv-x="703" d="M79 336v723q0 327 269 327q276 0 276 -356q0 -37 -4 -108h-190q3 56 3 92q0 101 -10 136q-17 59 -75 59q-46 0 -63 -32q-15 -28 -15 -118v-723q0 -91 6 -119q14 -60 70 -60q62 0 76 65q7 30 7 114v197h-84v161h275v-694h-102l-30 94q-78 -114 -176 -114q-86 0 -152 65 q-57 56 -73 149q-8 47 -8 142z" />
<glyph unicode="H" horiz-adv-x="700" d="M82 0v1365h191v-561h155v561h191v-1365h-191v627h-155v-627h-191z" />
<glyph unicode="I" horiz-adv-x="355" d="M82 0v1365h191v-1365h-191z" />
<glyph unicode="J" horiz-adv-x="414" d="M20 0v189h15q54 0 78 20q27 24 27 97v1059h191v-1038q0 -94 -4 -133t-16 -70q-45 -104 -173 -119q-45 -5 -118 -5z" />
<glyph unicode="K" horiz-adv-x="736" d="M82 0v1365h191v-514l187 514h194l-172 -461l213 -904h-199l-140 646l-83 -225v-421h-191z" />
<glyph unicode="L" horiz-adv-x="576" d="M82 0v1365h191v-1187h269v-178h-460z" />
<glyph unicode="M" horiz-adv-x="889" d="M82 0v1365h226l135 -680l134 680h230v-1365h-164v964l-159 -964h-83l-159 964v-964h-160z" />
<glyph unicode="N" horiz-adv-x="770" d="M82 0v1365h165l250 -804v804h191v-1365h-191l-224 716v-716h-191z" />
<glyph unicode="O" horiz-adv-x="699" d="M79 348v671q0 137 11 178q26 106 121 155q63 33 139 33q72 0 132.5 -30t93.5 -81q38 -58 42 -131q2 -42 2 -124v-671q0 -137 -11 -179q-26 -106 -121 -156q-63 -33 -138 -33q-72 0 -133 30t-94 82q-38 59 -42 133q-2 42 -2 123zM270 268q0 -55 14 -77q22 -34 65 -34 q44 0 65 34q15 23 15 77v829q0 55 -14 77q-22 34 -66 34q-43 0 -65 -34q-14 -22 -14 -77v-829z" />
<glyph unicode="P" horiz-adv-x="673" d="M82 0v1365h181q177 0 238 -46q86 -66 108 -191q9 -51 9 -162q0 -176 -24 -242q-61 -170 -295 -170h-26v-554h-191zM273 732h27q98 0 121 65q9 36 13 163q-4 127 -13 163q-23 65 -121 65h-27v-456z" />
<glyph unicode="Q" horiz-adv-x="699" d="M79 348v671q0 137 11 178q26 106 121 155q63 33 139 33q72 0 132.5 -30t93.5 -81q38 -58 42 -131q2 -42 2 -124v-671q0 -138 -10 -176q-6 -24 -12 -40q19 -27 58 -42v-187q-11 -1 -17 -1q-74 0 -134 41q-28 20 -52 54q-50 -17 -104 -17q-72 0 -132.5 30t-93.5 82 q-38 59 -42 133q-2 42 -2 123zM270 268q0 -55 14 -77q22 -34 65 -34q44 0 65 34q15 23 15 77v829q0 55 -14 77q-22 34 -66 34q-43 0 -65 -34q-14 -22 -14 -77v-829z" />
<glyph unicode="R" horiz-adv-x="714" d="M82 0v1365h187q166 0 232 -50q117 -89 117 -331q0 -132 -21 -203q-17 -55 -75 -129l134 -652h-205l-109 587q-37 -6 -69 -7v-580h-191zM273 771h27q99 0 120 65q12 36 12 186q0 68 -12 102q-22 64 -120 64h-27v-417z" />
<glyph unicode="S" horiz-adv-x="664" d="M52 322q0 33 3 72l188 10q-1 -38 -1 -67t1 -50q7 -131 97 -131q86 0 86 136q0 67 -32 137q-21 45 -85 131l-94 140q-76 114 -109 189q-45 103 -45 202q0 130 70 208q77 87 210 87q136 0 204 -98q54 -76 56 -202v-69l-187 -19q0 89 -5 125q-12 86 -79 86q-80 0 -80 -128 q0 -72 33 -133q20 -37 101 -159l96 -141q137 -200 137 -385q0 -110 -47 -180q-69 -104 -230 -104q-152 0 -228 104q-41 55 -52 117q-8 50 -8 122z" />
<glyph unicode="T" horiz-adv-x="583" d="M14 1188v177h556v-177h-186v-1188h-191v1188h-179z" />
<glyph unicode="U" horiz-adv-x="705" d="M82 346v1019h191v-1097q0 -54 14 -77q22 -34 65 -34q44 0 66 34q14 22 14 77v1097h191v-1019q0 -137 -11 -178q-26 -106 -121 -155q-62 -33 -138 -33q-73 0 -133.5 30t-93.5 81q-38 58 -42 132q-2 42 -2 123z" />
<glyph unicode="V" horiz-adv-x="648" d="M27 1365h188l115 -830l110 830h180l-198 -1365h-189z" />
<glyph unicode="W" horiz-adv-x="955" d="M41 1365h174l97 -775l92 775h150l91 -804l95 804h175l-175 -1365h-165l-99 734l-92 -734h-169z" />
<glyph unicode="X" horiz-adv-x="716" d="M41 0l205 713l-188 652h192l113 -422l111 422h184l-188 -652l205 -713h-205l-112 452l-112 -452h-205z" />
<glyph unicode="Y" horiz-adv-x="670" d="M27 1365h206l104 -503l105 503h200l-212 -797v-568h-191v568z" />
<glyph unicode="Z" horiz-adv-x="640" d="M55 0v177l340 1011h-302v177h493v-177l-340 -1011h340v-177h-531z" />
<glyph unicode="[" horiz-adv-x="559" d="M147 -221v1586h278v-177h-111v-1232h111v-177h-278z" />
<glyph unicode="\" horiz-adv-x="638" d="M48 1365h128l428 -1502h-122z" />
<glyph unicode="]" horiz-adv-x="559" d="M134 -44h111v1232h-111v177h278v-1586h-278v177z" />
<glyph unicode="^" horiz-adv-x="1024" d="M57 755l346 615h218l346 -615h-178l-278 483l-277 -483h-177z" />
<glyph unicode="_" horiz-adv-x="1024" d="M0 -140h1024v-122h-1024v122z" />
<glyph unicode="`" horiz-adv-x="1024" d="M312 1337h198l94 -153h-144z" />
<glyph unicode="a" horiz-adv-x="628" d="M62 243q0 121 49 203q45 77 169 156q62 41 89 59v114q0 55 -7 69q-13 23 -48 23q-47 0 -61 -46q-8 -27 -12 -103h-172q12 144 46 205q60 108 202 108q108 0 169 -64q60 -61 60 -179v-624q1 -107 19 -164h-184q-8 31 -12 83q-65 -97 -151 -97q-156 0 -156 257zM239 259 q0 -108 56 -108q38 0 74 54v316q-78 -64 -106 -127q-24 -53 -24 -135z" />
<glyph unicode="b" horiz-adv-x="634" d="M76 0v1365h177v-444q96 110 172 110q30 0 60 -16.5t45 -42.5q28 -46 28 -181v-565q0 -136 -28 -181q-15 -25 -45.5 -42t-60.5 -17q-76 0 -171 110v-96h-177zM253 191q49 -41 81 -41q47 0 47 76v565q0 76 -47 76q-32 0 -81 -41v-635z" />
<glyph unicode="c" horiz-adv-x="613" d="M72 273v471q0 132 55 202q67 85 184 85q139 0 203 -93q47 -67 47 -182q0 -20 -3 -95h-177v41v45q0 67 -12 89q-17 32 -56 32q-64 0 -64 -105v-509q0 -105 64 -105q39 0 56 32q12 22 12 89v45v58h177q3 -87 3 -108q0 -119 -47 -186q-64 -93 -203 -93q-117 0 -184 86 q-55 69 -55 201z" />
<glyph unicode="d" horiz-adv-x="634" d="M75 226v565q0 135 28 181q15 26 45 42.5t60 16.5q76 0 172 -110v444h177v-1365h-173l-4 96q-95 -110 -171 -110q-30 0 -60.5 16.5t-45.5 42.5q-28 45 -28 181zM252 226q0 -76 47 -76q32 0 81 41v635q-49 41 -81 41q-47 0 -47 -76v-565z" />
<glyph unicode="e" horiz-adv-x="634" d="M72 273v473q0 145 61.5 215t187.5 70q109 0 173 -69q64 -68 64 -185v-299h-309v-224q0 -105 65 -105q39 0 55 32q12 22 12 80v9v45v41h177q3 -74 3 -95q0 -115 -47 -182q-64 -93 -203 -93q-117 0 -184 86q-55 69 -55 201zM249 620h132v172q0 75 -66 75t-66 -75v-172z" />
<glyph unicode="f" horiz-adv-x="384" d="M22 853v164h81v120q0 112 41 163q53 68 158 68q29 0 68 -3v-164q-15 1 -25 1q-65 0 -65 -65v-120h90v-164h-90v-853h-177v853h-81z" />
<glyph unicode="g" horiz-adv-x="625" d="M33 -178q0 101 152 178q-55 18 -80 37q-41 30 -41 83q0 96 121 167q-100 69 -101 218v295q0 103 56 164q62 67 162 67q115 0 183 -95q49 88 134 95v-168q-26 9 -42 9q-25 0 -55 -19v-29v-41v-248q0 -117 -43 -184q-58 -91 -168 -91q-20 0 -47 2q-50 -11 -50 -48 q0 -46 62 -61q25 -7 144 -22q98 -13 153 -73q57 -62 57 -159q0 -115 -84 -189q-83 -73 -230 -73q-122 0 -200 43q-37 21 -60 60t-23 82zM210 -121q0 -51 45 -76q28 -16 75 -16q62 0 96 27q37 29 37 76q0 51 -43 70q-19 9 -67.5 18.5t-54.5 6.5q-40 -22 -55 -36 q-33 -30 -33 -70zM240 498q0 -76 63 -76t63 76v295q0 76 -63 76t-63 -76v-295z" />
<glyph unicode="h" horiz-adv-x="635" d="M76 0v1365h177v-444q96 110 171 110q31 0 61 -16.5t45 -42.5q28 -45 28 -181v-791h-177v791q0 76 -47 76q-32 0 -81 -41v-826h-177z" />
<glyph unicode="i" horiz-adv-x="330" d="M76 0v1017h177v-1017h-177zM76 1183v182h177v-182h-177z" />
<glyph unicode="j" horiz-adv-x="336" d="M-31 -152q22 -6 36 -6q41 0 59 27q18 26 18 131v1017h177v-1017q0 -139 -10 -186q-33 -149 -196 -149q-39 0 -84 14v169zM82 1183v182h177v-182h-177z" />
<glyph unicode="k" horiz-adv-x="628" d="M76 0v1365h177v-740l136 392h166l-131 -325l169 -692h-176l-106 493l-58 -140v-353h-177z" />
<glyph unicode="l" horiz-adv-x="330" d="M76 0v1365h177v-1365h-177z" />
<glyph unicode="m" horiz-adv-x="939" d="M76 0v1017h173l4 -96q43 50 71 71q52 39 105 39q48 0 80 -30q23 -22 44 -80q71 110 166 110q79 0 115 -58q21 -35 24 -81q4 -42 4 -101v-791h-177v791q0 76 -50 76q-30 0 -78 -41v-826h-177v791q0 76 -47 76q-31 0 -80 -41v-826h-177z" />
<glyph unicode="n" horiz-adv-x="635" d="M76 0v1017h173l4 -88q99 102 171 102q30 0 60.5 -16t45.5 -41q28 -44 28 -176v-798h-177v791q0 76 -47 76q-32 0 -81 -41v-826h-177z" />
<glyph unicode="o" horiz-adv-x="631" d="M72 273v471q0 287 243 287t243 -287v-471q0 -287 -243 -287t-243 287zM249 244q0 -94 66 -94t66 94v529q0 94 -66 94t-66 -94v-529z" />
<glyph unicode="p" horiz-adv-x="634" d="M76 -348v1365h173l4 -96q96 110 171 110q31 0 61 -16.5t45 -42.5q28 -45 28 -181v-565q0 -135 -28 -181q-15 -26 -45 -42.5t-60 -16.5q-76 0 -172 110v-444h-177zM253 191q49 -41 81 -41q47 0 47 76v565q0 76 -47 76q-32 0 -81 -41v-635z" />
<glyph unicode="q" horiz-adv-x="634" d="M75 226v565q0 136 28 181q15 26 45 42.5t61 16.5q75 0 171 -110l4 96h173v-1365h-177v444q-96 -110 -172 -110q-30 0 -60 16.5t-45 42.5q-28 46 -28 181zM252 226q0 -76 47 -76q32 0 81 41v635q-49 41 -81 41q-47 0 -47 -76v-565z" />
<glyph unicode="r" horiz-adv-x="436" d="M76 0v1017h177v-127q68 141 173 141h9v-198q-46 8 -67 8q-115 0 -115 -151v-690h-177z" />
<glyph unicode="s" horiz-adv-x="561" d="M39 232q0 12 2 27l173 11q-3 -18 -3 -32q0 -88 68 -88q69 0 69 88q0 54 -29 99q-16 25 -75 87l-68 71q-117 122 -117 277q0 259 245 259q88 0 143 -46q65 -55 73 -158q2 -20 2 -54l-171 -11q0 25 -2 39q-7 66 -57 66q-59 0 -59 -96q0 -38 11 -69q13 -37 62 -88l71 -74 q79 -83 116 -152q32 -60 32 -139q0 -101 -54 -173q-67 -90 -193 -90q-147 0 -212 119q-27 50 -27 127z" />
<glyph unicode="t" horiz-adv-x="436" d="M31 853v164h86v280h177v-280h126v-164h-126v-598q0 -93 86 -93q13 0 40 2v-164q-67 -14 -102 -14q-94 0 -149 51q-52 49 -52 157v659h-86z" />
<glyph unicode="u" horiz-adv-x="635" d="M76 219v798h177v-791q0 -76 47 -76q32 0 81 41v826h177v-1017h-162l-15 88q-99 -102 -171 -102q-30 0 -60.5 16t-45.5 41q-28 44 -28 176z" />
<glyph unicode="v" horiz-adv-x="578" d="M34 1017h170l84 -586l84 586h171l-171 -1017h-168z" />
<glyph unicode="w" horiz-adv-x="853" d="M34 1017h161l80 -544l87 544h130l91 -554l79 554h157l-157 -1017h-137l-96 582l-100 -582h-134z" />
<glyph unicode="x" horiz-adv-x="564" d="M27 0l158 536l-145 481h166l73 -291l70 291h168l-148 -481l167 -536h-167l-89 324l-85 -324h-168z" />
<glyph unicode="y" horiz-adv-x="582" d="M34 1017h173l82 -598l86 598h172l-186 -1155q-17 -105 -70 -156q-71 -68 -189 -68q-25 0 -55 5v172q12 -1 18 -1q44 0 75 18q33 18 43 52q9 29 9 77q0 74 -18 186z" />
<glyph unicode="z" horiz-adv-x="558" d="M55 0v151l263 702h-233v164h419v-152l-255 -701h255v-164h-449z" />
<glyph unicode="{" horiz-adv-x="641" d="M84 500v149q53 13 85 53q30 36 32 132v253q-2 150 70 215q46 45 117 55q56 8 183 8v-172q-91 -1 -141 -29q-37 -23 -46 -68q-8 -28 -8 -87v-204q0 -108 -30 -159q-25 -43 -83 -76q65 -34 94 -102q19 -46 19 -137v-198q3 -100 20 -124q35 -67 175 -67v-163q-173 0 -223 16 q-101 34 -131 141q-16 55 -16 145v226q0 102 -34 143q-34 39 -83 50z" />
<glyph unicode="|" horiz-adv-x="1024" d="M415 -341v1706h193v-1706h-193z" />
<glyph unicode="}" horiz-adv-x="641" d="M69 -58q88 0 139 27q16 9 30 30t18 40q8 25 8 94v198q1 100 23 146q29 60 90 93q-63 35 -88 87q-25 53 -25 148v204q-2 89 -19 116q-35 67 -176 68v172q169 0 221 -17q150 -51 149 -261v-253q2 -96 32 -132q32 -40 85 -53v-149q-49 -11 -83 -50q-34 -41 -34 -143v-226 q0 -166 -67 -235q-46 -49 -118 -60q-57 -6 -185 -7v163z" />
<glyph unicode="~" horiz-adv-x="1365" d="M193 1255q109 241 283 241q76 0 237 -78q96 -48 126 -56q31 -9 56 -9q100 0 181 148l100 -80q-104 -239 -302 -239q-31 0 -73 13q-41 13 -168 75q-107 52 -167 52q-91 0 -173 -147z" />
<glyph unicode="&#xa2;" d="M117 454v471q1 117 35 172q51 85 139 107v161h140v-163q64 -18 101 -52q73 -69 73 -215q0 -23 -2 -93h-177v41v45q0 66 -12 89q-17 31 -56 31q-64 0 -64 -104v-509q0 -105 64 -105q39 0 56 32q12 22 12 89v45v58h177q2 -83 2 -106q0 -225 -174 -272v-176h-140v174 q-180 51 -174 280z" />
<glyph unicode="&#xa3;" d="M58 143q66 60 97 129q46 100 46 246q0 53 -6 117h-116v164h82q-6 25 -16 56q-27 89 -35 120q-20 69 -20 132q0 101 58 176q36 46 96 74.5t123 28.5t121 -29t91 -76q52 -76 52 -191q0 -30 -7 -71h-173q2 31 2 51q0 139 -86 139q-90 0 -90 -104q0 -38 12 -88q4 -17 55 -166 q6 -17 16 -52h171v-164h-141q4 -46 4 -80q0 -222 -101 -400q46 16 73 16q9 0 76 -10q24 -4 49 -4q64 0 139 34l46 -160q-41 -22 -62 -32q-46 -20 -118 -20q-65 0 -156 19q-52 11 -76 11q-41 0 -142 -29z" />
<glyph unicode="&#xa5;" d="M56 1365h195l100 -497l99 497h191l-158 -594h105v-164h-149v-607h-182v607h-148v164h105z" />
<glyph unicode="&#xa8;" horiz-adv-x="1024" d="M311 1183v182h157v-182h-157zM557 1183v182h157v-182h-157z" />
<glyph unicode="&#xa9;" horiz-adv-x="1597" d="M93 681q0 201 104 372q102 168 283 260q150 77 329 77q189 0 359 -104q170 -105 260 -282q77 -152 77 -322q0 -141 -53.5 -270.5t-153.5 -229.5q-99 -99 -228.5 -153t-270.5 -54q-139 0 -268.5 53.5t-229.5 152.5q-99 100 -153.5 230t-54.5 270zM204 683q0 -251 176 -429 q174 -176 419 -176q246 0 421 177q174 177 174 426q0 121 -46 234.5t-129 195.5q-178 176 -426 176q-113 0 -221.5 -46t-191.5 -130q-84 -84 -130 -196t-46 -232zM626 463v444q0 200 171 200q175 0 175 -217q0 -26 -3 -71h-130q3 38 3 63q0 57 -6 77q-9 30 -39 30 q-24 0 -33 -16q-8 -14 -8 -66v-444q0 -52 8 -67q9 -15 33 -15q27 0 36 21t9 79q0 35 -3 94h130q3 -62 3 -91q0 -221 -175 -221q-171 0 -171 200z" />
<glyph unicode="&#xab;" horiz-adv-x="570" d="M82 365v294l156 153v-231l-53 -69l53 -69v-231zM333 365v294l156 167v-245l-53 -69l53 -69v-245z" />
<glyph unicode="&#xad;" horiz-adv-x="255" d="M0 427v160h255v-160h-255z" />
<glyph unicode="&#xae;" horiz-adv-x="1570" d="M79 681q0 201 104 372q102 168 283 260q150 77 329 77q189 0 359 -104q170 -105 260 -282q77 -152 77 -322q0 -141 -53.5 -270.5t-153.5 -229.5q-99 -99 -228.5 -153t-270.5 -54q-139 0 -268.5 53.5t-229.5 152.5q-99 100 -153.5 230t-54.5 270zM190 683q0 -251 176 -429 q174 -176 419 -176q246 0 421 177q174 177 174 426q0 121 -46 234.5t-129 195.5q-178 176 -426 176q-113 0 -221.5 -46t-191.5 -130q-84 -84 -130 -196t-46 -232zM617 275v819h121q104 0 145 -31q75 -54 75 -201q0 -79 -13 -121q-11 -33 -45 -76l82 -390h-139l-66 345 q-17 -2 -30 -2v-343h-130zM747 744h10q56 0 67 33q7 20 7 107q0 39 -7 58q-12 34 -67 34h-10v-232z" />
<glyph unicode="&#xb4;" horiz-adv-x="1024" d="M407 1184l93 153h199l-148 -153h-144z" />
<glyph unicode="&#xb8;" horiz-adv-x="1024" d="M432 -95h160v-139l-44 -114h-98l36 114h-54v139z" />
<glyph unicode="&#xbb;" horiz-adv-x="570" d="M82 198v245l53 69l-53 69v245l156 -167v-294zM333 212v231l53 69l-53 69v231l156 -153v-294z" />
<glyph unicode="&#x2c6;" horiz-adv-x="1024" d="M324 1183l92 156h193l92 -156h-143l-45 53l-46 -53h-143z" />
<glyph unicode="&#x2da;" horiz-adv-x="1024" d="M362 1287q0 61 44 100q47 42 108 42q59 0 104 -42q44 -39 44 -99q0 -61 -44 -102q-44 -42 -106 -42t-106 42t-44 101zM437 1287q0 -30 22 -51t53 -21t53 21t22 51t-22 50q-23 21 -54 21q-29 0 -52 -21q-22 -20 -22 -50z" />
<glyph unicode="&#x2dc;" horiz-adv-x="1024" d="M344 1178v142q45 31 96 31q35 0 74 -17q56 -23 84 -23q32 0 81 35v-142q-50 -35 -81 -35q-28 0 -84 23q-39 17 -74 17q-51 0 -96 -31z" />
<glyph unicode="&#x2000;" horiz-adv-x="750" />
<glyph unicode="&#x2001;" horiz-adv-x="1501" />
<glyph unicode="&#x2002;" horiz-adv-x="750" />
<glyph unicode="&#x2003;" horiz-adv-x="1501" />
<glyph unicode="&#x2004;" horiz-adv-x="500" />
<glyph unicode="&#x2005;" horiz-adv-x="375" />
<glyph unicode="&#x2006;" horiz-adv-x="250" />
<glyph unicode="&#x2007;" horiz-adv-x="250" />
<glyph unicode="&#x2008;" horiz-adv-x="187" />
<glyph unicode="&#x2009;" horiz-adv-x="300" />
<glyph unicode="&#x200a;" horiz-adv-x="83" />
<glyph unicode="&#x2010;" horiz-adv-x="255" d="M0 427v160h255v-160h-255z" />
<glyph unicode="&#x2011;" horiz-adv-x="255" d="M0 427v160h255v-160h-255z" />
<glyph unicode="&#x2012;" horiz-adv-x="255" d="M0 427v160h255v-160h-255z" />
<glyph unicode="&#x2013;" d="M78 427v160h541v-160h-541z" />
<glyph unicode="&#x2014;" horiz-adv-x="783" d="M0 427v160h783v-160h-783z" />
<glyph unicode="&#x2018;" horiz-adv-x="382" d="M96 946v205l86 242h105l-70 -242h70v-205h-191z" />
<glyph unicode="&#x2019;" horiz-adv-x="382" d="M96 919l70 241h-70v205h191v-205l-86 -241h-105z" />
<glyph unicode="&#x201a;" horiz-adv-x="382" d="M96 0v205h191v-205l-86 -242h-105l70 242h-70z" />
<glyph unicode="&#x201c;" horiz-adv-x="662" d="M96 946v205l86 242h105l-70 -242h70v-205h-191zM376 946v205l86 242h105l-70 -242h70v-205h-191z" />
<glyph unicode="&#x201d;" horiz-adv-x="662" d="M96 919l70 241h-70v205h191v-205l-86 -241h-105zM376 919l70 241h-70v205h191v-205l-86 -241h-105z" />
<glyph unicode="&#x201e;" horiz-adv-x="662" d="M96 0v205h191v-205l-86 -242h-105l70 242h-70zM376 0v205h191v-205l-86 -242h-105l70 242h-70z" />
<glyph unicode="&#x2026;" horiz-adv-x="1147" d="M96 0v205h191v-205h-191zM478 0v205h191v-205h-191zM861 0v205h191v-205h-191z" />
<glyph unicode="&#x202f;" horiz-adv-x="300" />
<glyph unicode="&#x2039;" horiz-adv-x="319" d="M82 365v294l156 167v-245l-53 -69l53 -69v-245z" />
<glyph unicode="&#x203a;" horiz-adv-x="319" d="M82 198v245l53 69l-53 69v245l156 -167v-294z" />
<glyph unicode="&#x205f;" horiz-adv-x="375" />
<glyph unicode="&#x2122;" horiz-adv-x="1009" d="M61 1252v113h336v-113h-107v-665h-125v665h-104zM451 587v778h144l86 -375l86 375h146v-778h-109v470l-93 -470h-60l-93 469v-469h-107z" />
<glyph unicode="&#x25fc;" horiz-adv-x="1014" d="M0 0v1015h1015v-1015h-1015z" />
</font>
</defs>
</svg>
